<?xml version="1.0" standalone="no"?>
<!DOCTYPE svg PUBLIC "-//W3C//DTD SVG 20010904//EN"
 "http://www.w3.org/TR/2001/REC-SVG-20010904/DTD/svg10.dtd">
<svg version="1.0" xmlns="http://www.w3.org/2000/svg"
 width="1200.000000pt" height="1200.000000pt" viewBox="0 0 1200.000000 1200.000000"
 preserveAspectRatio="xMidYMid meet">

<g transform="translate(0.000000,1200.000000) scale(0.100000,-0.100000)"
fill="#000000" stroke="none">
<path d="M6070 11980 c-25 -9 -67 -26 -93 -38 -27 -12 -51 -22 -53 -22 -3 0
-33 -18 -68 -40 -35 -22 -68 -40 -73 -40 -6 0 -22 -18 -37 -40 -15 -23 -38
-45 -51 -50 -14 -5 -25 -15 -25 -21 0 -13 -32 -43 -72 -67 -14 -8 -32 -26 -39
-39 -7 -13 -19 -23 -26 -23 -8 0 -12 -4 -8 -9 3 -5 -16 -27 -42 -47 -43 -34
-113 -102 -113 -109 0 -2 -22 -26 -50 -55 -27 -29 -50 -54 -50 -56 0 -8 -75
-84 -83 -84 -5 0 -14 -6 -20 -12 -19 -20 -48 -68 -41 -68 3 0 -9 -12 -27 -27
-48 -41 -89 -86 -89 -98 0 -17 -57 -75 -74 -75 -9 0 -16 -9 -16 -20 0 -10 -9
-24 -21 -30 -11 -7 -18 -14 -16 -17 5 -5 -29 -43 -38 -43 -9 0 -45 -34 -45
-43 0 -5 -28 -36 -62 -70 -35 -34 -70 -75 -78 -91 -8 -16 -40 -52 -71 -80 -30
-28 -64 -64 -74 -81 -10 -16 -39 -48 -66 -70 -26 -22 -48 -44 -48 -48 -1 -5
-8 -15 -16 -24 -8 -8 -13 -19 -10 -24 4 -5 0 -9 -8 -9 -8 0 -22 -9 -32 -20
-10 -11 -24 -20 -30 -20 -7 0 -15 -10 -19 -22 -5 -22 -27 -47 -108 -121 -21
-19 -38 -38 -38 -44 0 -5 -21 -29 -47 -52 -55 -48 -159 -143 -252 -231 -36
-33 -81 -72 -100 -87 -46 -37 -131 -124 -131 -136 0 -11 -17 -26 -65 -59 -40
-26 -101 -77 -120 -99 -5 -6 -40 -43 -77 -81 -38 -39 -68 -74 -68 -78 0 -5
-15 -19 -32 -32 -18 -12 -51 -43 -73 -67 -72 -79 -137 -141 -149 -141 -6 -1
-21 -23 -34 -50 -13 -28 -29 -50 -36 -50 -17 0 -129 -98 -138 -120 -8 -22 -66
-70 -83 -70 -8 0 -24 -13 -37 -30 -12 -16 -28 -30 -35 -30 -7 0 -13 -9 -13
-20 0 -11 -4 -20 -9 -20 -5 0 -22 -13 -38 -30 -15 -16 -31 -30 -34 -30 -9 0
-102 -95 -115 -117 -6 -10 -20 -22 -30 -28 -11 -5 -26 -15 -34 -22 -76 -63
-90 -77 -90 -89 0 -8 -10 -14 -22 -14 -12 0 -19 -3 -15 -6 3 -3 -26 -33 -64
-66 -39 -33 -75 -68 -82 -79 -6 -10 -14 -19 -17 -19 -9 0 -122 -104 -198 -182
-41 -43 -83 -78 -93 -78 -12 0 -19 -7 -19 -20 0 -11 -9 -25 -20 -32 -11 -7
-20 -18 -20 -24 0 -6 -19 -25 -43 -42 -63 -47 -107 -87 -107 -98 0 -5 -18 -22
-40 -38 -22 -17 -40 -33 -40 -38 0 -4 -4 -8 -9 -8 -6 0 -48 -37 -94 -82 -46
-46 -110 -102 -141 -126 -31 -24 -56 -48 -56 -55 -1 -11 -118 -108 -140 -115
-6 -2 -10 -9 -10 -16 0 -15 -109 -116 -125 -116 -13 0 -65 -58 -66 -74 0 -11
-78 -77 -146 -124 -18 -12 -33 -28 -33 -35 0 -13 -60 -77 -72 -77 -13 0 -106
-97 -112 -118 -4 -12 -14 -22 -22 -22 -17 0 -114 -88 -114 -102 0 -5 -28 -40
-61 -78 -34 -38 -68 -82 -77 -99 -8 -17 -19 -31 -24 -31 -17 0 -38 -28 -38
-49 0 -12 -15 -36 -34 -54 -18 -18 -37 -44 -41 -57 -4 -14 -13 -32 -20 -40
-20 -24 -27 -82 -32 -283 -4 -163 -2 -188 11 -193 10 -4 16 -18 16 -35 0 -16
5 -29 11 -29 5 0 8 -4 5 -9 -8 -13 5 -71 15 -71 16 0 44 -36 74 -96 16 -32 34
-63 40 -69 20 -18 75 -93 75 -101 0 -5 14 -18 30 -29 17 -11 29 -27 27 -35 -1
-8 10 -23 25 -32 15 -10 28 -22 28 -28 0 -5 6 -10 13 -11 6 0 32 -24 57 -53
25 -29 48 -51 53 -49 4 2 7 -1 7 -6 0 -6 5 -11 11 -11 6 0 37 -23 69 -50 38
-34 70 -53 94 -57 20 -3 36 -10 36 -14 0 -5 11 -9 24 -9 13 0 29 -7 36 -15 7
-9 19 -14 27 -11 7 3 13 1 13 -5 0 -6 6 -9 14 -6 8 3 20 -1 27 -9 6 -8 25 -18
42 -22 17 -4 35 -16 41 -27 26 -45 35 -49 87 -37 27 7 59 21 71 32 12 11 28
20 35 20 7 0 13 5 13 10 0 6 7 10 15 10 8 0 15 5 15 10 0 6 6 10 13 10 7 0 45
31 83 70 38 38 72 70 76 70 4 0 101 96 216 213 315 320 352 359 352 366 0 12
53 65 83 84 15 10 33 30 40 45 10 24 52 72 62 72 7 0 85 76 85 83 0 3 28 34
63 69 74 74 197 208 191 208 -3 0 46 57 88 101 9 9 19 27 23 39 8 24 60 80 74
80 5 0 12 11 15 25 4 14 11 25 16 25 6 0 10 7 10 15 0 8 9 20 20 27 11 7 20
17 20 22 0 8 32 47 104 127 13 14 27 35 30 47 4 12 12 22 17 22 6 0 8 4 4 9
-3 6 8 20 24 32 16 12 35 34 41 49 12 29 72 90 89 90 6 0 11 7 11 15 0 8 18
34 41 57 23 24 47 57 55 73 8 17 20 39 27 50 30 48 82 71 93 41 3 -8 25 -19
49 -26 27 -8 47 -20 50 -31 4 -11 11 -19 16 -19 5 0 9 -6 9 -13 0 -18 50 -63
80 -72 36 -11 50 -24 50 -50 0 -16 10 -28 34 -39 19 -9 36 -20 38 -24 2 -4 16
-14 32 -22 16 -8 34 -24 40 -35 15 -26 45 -52 82 -70 17 -9 91 -74 165 -145
73 -72 137 -130 141 -130 5 0 8 -6 8 -13 0 -18 49 -63 77 -71 15 -5 24 -18 28
-39 5 -27 15 -37 55 -55 27 -13 59 -37 71 -55 24 -35 68 -77 80 -77 4 0 11
-10 14 -22 11 -34 54 -76 86 -83 16 -4 26 -11 23 -16 -9 -16 46 -80 82 -95 24
-10 36 -23 42 -46 6 -25 19 -37 56 -56 32 -16 52 -34 63 -58 9 -19 22 -34 28
-34 6 0 22 -11 35 -25 13 -14 30 -25 37 -25 8 0 20 -15 28 -34 8 -19 25 -38
37 -42 24 -7 98 -78 98 -93 0 -4 20 -21 45 -36 29 -19 46 -38 50 -56 6 -26 28
-44 51 -40 14 2 144 -145 144 -163 0 -21 64 -38 94 -25 14 7 26 17 26 24 0 15
42 55 58 55 7 0 12 7 12 15 0 8 9 20 20 27 11 7 20 16 20 21 0 11 65 77 76 77
5 0 18 15 28 33 10 17 47 59 81 92 35 33 79 82 99 108 20 27 36 45 36 41 0 -5
23 14 50 41 28 27 50 53 50 58 0 9 53 56 82 73 10 5 15 13 12 17 -4 4 3 7 15
7 13 0 25 9 30 23 11 28 62 87 76 87 5 0 28 23 50 50 22 28 68 79 102 113 35
34 63 67 63 74 0 7 16 24 35 39 19 15 38 37 41 50 3 13 11 24 17 24 6 0 7 3 4
6 -4 4 3 19 14 35 11 15 26 45 33 66 7 21 22 42 34 48 22 10 30 39 13 50 -5 3
-15 22 -21 43 -15 48 -42 102 -52 102 -5 0 -8 8 -8 17 0 10 -19 36 -42 58 -24
23 -48 50 -54 60 -6 11 -24 27 -40 35 -16 9 -35 30 -43 46 -8 16 -18 30 -22
32 -4 2 -19 14 -33 27 -14 13 -32 28 -39 32 -7 4 -18 20 -24 35 -8 17 -29 35
-58 48 -37 17 -51 30 -66 65 -19 44 -40 60 -72 56 -22 -3 -57 26 -57 46 0 7
-4 13 -10 13 -5 0 -10 9 -10 19 0 14 -16 27 -54 44 -31 14 -62 37 -72 54 -26
41 -61 72 -89 79 -13 3 -32 18 -41 32 -22 34 -50 62 -64 62 -5 0 -10 4 -10 9
0 6 -12 16 -27 23 -15 7 -34 27 -42 43 -17 36 -50 64 -74 65 -10 0 -20 8 -24
18 -3 9 -13 25 -22 34 -9 10 -33 37 -54 60 -21 24 -58 65 -82 92 -25 26 -45
56 -45 65 -1 9 -23 33 -49 53 -27 21 -51 48 -54 60 -10 43 -31 93 -54 125 -20
27 -24 48 -28 152 -4 72 -2 121 3 121 5 0 12 17 16 38 3 22 13 57 22 78 9 21
18 52 19 68 2 16 7 31 11 35 13 9 34 49 34 64 0 8 10 25 23 38 12 14 31 44 41
67 10 23 29 49 42 57 13 9 24 24 24 35 0 11 5 20 10 20 6 0 10 7 10 15 0 8 12
22 28 32 38 25 48 36 56 61 8 25 71 92 86 92 5 0 10 7 10 15 0 8 8 19 19 24
10 6 21 21 24 33 4 13 20 31 36 41 16 10 51 42 77 72 44 52 160 145 197 158 9
4 17 10 17 15 0 5 25 17 56 27 47 15 63 16 95 6 21 -7 39 -16 39 -21 0 -6 8
-10 19 -10 16 0 110 -66 136 -96 6 -7 42 -28 80 -48 45 -24 79 -49 94 -72 17
-24 46 -46 88 -66 43 -20 71 -42 90 -68 16 -22 37 -43 48 -46 26 -8 95 -74 95
-91 0 -7 4 -13 8 -13 5 0 22 -11 38 -25 16 -14 33 -25 37 -25 4 0 15 -16 23
-36 8 -19 28 -43 45 -52 44 -24 62 -42 83 -83 12 -23 31 -40 52 -48 44 -16 64
-37 64 -66 0 -15 9 -26 28 -34 15 -6 41 -28 57 -47 17 -19 46 -52 66 -72 20
-20 44 -54 53 -74 13 -26 26 -39 47 -43 27 -6 69 -51 69 -73 0 -6 16 -19 35
-31 19 -11 35 -25 35 -31 0 -5 9 -10 20 -10 12 0 20 -7 20 -16 0 -19 53 -74
72 -74 7 -1 26 -21 41 -45 16 -25 32 -45 37 -45 18 0 70 -57 81 -88 8 -23 17
-32 33 -32 25 0 60 -34 70 -67 4 -13 32 -39 61 -59 30 -19 57 -43 59 -52 10
-30 50 -69 79 -76 20 -5 29 -14 34 -36 3 -20 23 -44 58 -72 29 -24 56 -51 58
-61 3 -10 15 -21 26 -24 12 -3 21 -9 21 -13 0 -4 11 -12 24 -18 14 -6 27 -23
30 -39 5 -19 23 -38 56 -61 28 -17 50 -39 50 -47 0 -8 5 -15 12 -15 6 0 9 -3
6 -6 -9 -8 29 -44 46 -44 16 0 76 -56 76 -71 0 -15 38 -49 76 -69 16 -9 31
-25 33 -35 4 -26 37 -58 80 -79 18 -10 35 -25 38 -34 2 -10 27 -35 55 -57 28
-22 57 -53 65 -70 10 -19 33 -38 63 -53 37 -17 51 -31 60 -56 7 -23 20 -36 44
-46 28 -10 80 -70 61 -70 -3 0 7 -13 22 -30 14 -16 33 -30 40 -30 8 0 35 -21
60 -47 25 -27 55 -55 68 -63 12 -8 38 -35 56 -60 19 -24 46 -47 59 -50 17 -4
28 -16 36 -40 7 -22 22 -40 40 -49 32 -16 74 -60 74 -78 0 -14 55 -55 63 -47
3 3 10 -4 17 -15 6 -12 8 -21 5 -21 -3 0 3 -8 14 -19 10 -10 23 -25 27 -32 5
-8 22 -21 39 -29 16 -9 35 -26 41 -38 18 -37 51 -67 89 -82 19 -8 35 -21 35
-29 1 -22 35 -61 54 -61 9 0 16 -4 16 -9 0 -5 14 -14 30 -21 22 -9 30 -19 30
-36 0 -17 9 -28 28 -37 15 -6 33 -20 40 -29 7 -10 19 -18 26 -18 8 0 24 -16
37 -34 13 -19 34 -39 46 -45 12 -6 29 -26 37 -46 8 -19 19 -35 23 -35 13 0 88
-74 96 -93 3 -9 32 -33 63 -53 31 -20 59 -44 61 -54 3 -10 31 -31 64 -46 34
-17 61 -37 64 -49 7 -24 100 -95 125 -95 20 0 83 -30 88 -43 2 -4 8 -5 13 -1
5 3 9 0 9 -5 0 -6 6 -11 14 -11 8 0 21 -6 28 -12 7 -7 24 -14 38 -16 28 -3
130 28 130 40 0 4 7 5 15 2 8 -4 15 -1 15 5 0 6 7 11 15 11 14 0 95 38 105 50
3 3 18 11 34 18 59 26 202 128 262 187 84 82 134 125 145 125 5 0 11 11 14 23
4 13 33 49 64 80 32 31 56 58 53 62 -3 3 0 5 7 5 7 0 10 4 7 8 -2 4 9 23 25
41 16 19 32 45 35 58 4 12 10 23 16 23 5 0 7 4 3 9 -3 6 1 13 8 18 8 4 25 40
37 78 13 39 29 79 36 89 7 11 10 31 7 47 -3 18 -1 29 5 29 6 0 11 12 11 28 0
15 5 58 11 96 6 38 9 116 6 175 -3 58 -5 135 -5 170 0 52 -3 68 -19 80 -22 18
-52 90 -52 125 0 15 -10 32 -26 43 -22 16 -30 32 -33 66 -1 4 -12 12 -25 18
-15 7 -22 17 -19 29 3 11 -6 25 -26 40 -17 12 -40 38 -50 58 -10 21 -29 46
-40 56 -12 11 -31 36 -42 56 -12 20 -33 41 -50 47 -16 6 -29 19 -29 28 0 18
-66 88 -92 98 -10 3 -24 22 -32 41 -8 19 -24 37 -38 41 -12 5 -51 36 -85 71
-34 35 -69 64 -77 64 -9 0 -16 8 -16 20 0 11 -3 20 -7 20 -5 0 -17 14 -28 30
-11 16 -25 30 -32 30 -16 0 -84 60 -78 69 8 13 -26 51 -45 51 -11 0 -37 23
-62 54 -24 29 -59 62 -78 72 -19 10 -35 24 -35 29 1 20 -58 74 -97 89 -32 13
-38 20 -33 36 4 13 2 20 -6 20 -7 0 -10 3 -6 6 3 3 -19 23 -49 43 -30 20 -64
52 -75 70 -11 18 -33 38 -48 44 -15 5 -40 29 -55 53 -29 45 -51 67 -71 70 -18
3 -55 37 -55 51 0 15 -51 63 -67 63 -7 0 -17 9 -23 20 -6 11 -17 20 -25 20 -8
0 -15 7 -15 15 0 8 -5 15 -12 15 -6 0 -9 3 -5 6 8 8 -23 37 -56 52 -15 6 -34
25 -40 42 -8 18 -30 38 -57 53 -34 18 -47 32 -54 57 -12 40 -39 70 -64 70 -29
0 -60 28 -67 60 -5 23 -18 34 -61 55 -32 15 -59 35 -63 48 -12 29 -70 83 -99
92 -19 5 -54 53 -52 71 1 3 -23 20 -52 37 -33 20 -59 44 -68 64 -8 18 -22 33
-30 33 -9 0 -22 9 -30 21 -8 12 -25 25 -38 30 -13 5 -30 25 -38 44 -9 22 -27
41 -52 54 -20 10 -52 37 -70 60 -18 22 -51 51 -72 63 -23 14 -40 31 -40 41 0
20 -57 77 -78 77 -19 0 -60 42 -64 65 -2 11 -17 27 -33 35 -37 19 -95 70 -95
84 -1 21 -37 55 -66 62 -33 8 -64 39 -64 64 0 20 -26 45 -57 54 -13 4 -23 11
-23 16 0 4 -9 10 -20 13 -11 3 -24 16 -29 29 -12 30 -35 52 -94 89 -26 16 -46
33 -42 38 7 13 -52 70 -80 77 -28 7 -69 49 -61 62 9 15 -22 49 -52 55 -30 6
-77 48 -120 106 -13 17 -32 31 -43 31 -10 0 -19 5 -19 10 0 6 -6 10 -14 10 -7
0 -21 15 -29 33 -20 41 -54 73 -90 81 -15 4 -25 11 -22 16 3 6 1 10 -5 10 -6
0 -8 5 -5 10 3 6 2 10 -3 10 -5 0 -12 9 -15 20 -3 11 -18 25 -34 32 -34 15
-93 68 -93 85 0 6 -19 26 -42 44 -24 18 -53 42 -65 54 -11 12 -43 40 -70 61
-54 44 -73 65 -67 76 5 8 -31 48 -43 48 -21 0 -74 56 -84 88 -9 32 -18 41 -53
53 -29 10 -42 20 -44 36 -2 12 -29 45 -60 73 -31 29 -64 64 -73 78 -8 15 -32
38 -53 52 -23 15 -39 35 -43 51 -3 19 -15 32 -37 40 -17 7 -38 21 -47 31 -9
10 -19 15 -22 12 -3 -3 -9 11 -13 31 -5 30 -15 43 -50 64 -24 14 -50 40 -59
58 -8 18 -33 42 -55 54 -22 13 -40 28 -40 35 0 6 -9 14 -21 17 -11 3 -25 19
-31 35 -9 22 -27 37 -72 59 -32 15 -64 33 -70 38 -6 6 -33 19 -60 29 -27 10
-57 27 -67 37 -10 10 -25 16 -32 13 -8 -3 -17 2 -20 10 -4 9 -17 16 -29 15
-27 0 -168 11 -183 15 -5 2 -30 -5 -55 -14z"/>
<path d="M7956 5321 c-9 -10 -16 -23 -16 -29 0 -6 -12 -19 -27 -29 -16 -10
-33 -24 -38 -31 -6 -7 -19 -14 -28 -16 -26 -3 -77 -54 -77 -75 0 -22 -31 -51
-53 -51 -9 0 -17 -7 -17 -15 0 -8 -7 -15 -15 -15 -8 0 -15 -5 -15 -10 0 -6
-11 -15 -25 -20 -13 -5 -44 -34 -67 -65 -31 -40 -48 -53 -60 -49 -13 4 -18 0
-18 -13 0 -20 -37 -49 -57 -45 -8 2 -10 -3 -7 -13 3 -8 1 -15 -5 -15 -6 0 -17
-15 -25 -34 -9 -22 -33 -47 -65 -68 -28 -18 -56 -45 -62 -60 -6 -16 -15 -28
-20 -28 -5 0 -9 -6 -9 -14 0 -8 -21 -24 -47 -37 -26 -13 -50 -31 -53 -39 -28
-62 -45 -90 -55 -90 -14 0 -55 -52 -73 -92 -6 -16 -18 -28 -27 -28 -8 0 -15
-7 -15 -15 0 -8 -4 -15 -9 -15 -5 0 -14 -15 -21 -32 -8 -18 -30 -50 -51 -70
-21 -21 -40 -47 -44 -59 -4 -11 -16 -30 -26 -40 -41 -41 -50 -108 -23 -162 16
-31 21 -38 63 -84 13 -14 22 -40 24 -65 3 -47 13 -71 27 -63 5 3 16 -9 26 -27
13 -25 19 -67 23 -169 5 -116 9 -140 25 -158 11 -12 21 -32 23 -44 9 -61 12
-277 4 -330 -12 -82 -14 -89 -29 -105 -7 -8 -12 -26 -11 -40 1 -15 -8 -45 -20
-67 -11 -21 -21 -45 -21 -52 0 -6 -7 -16 -14 -20 -8 -5 -27 -33 -41 -63 -39
-83 -62 -114 -165 -220 -99 -102 -137 -127 -283 -179 -83 -30 -239 -49 -269
-32 -16 8 -32 9 -47 3 -27 -10 -71 6 -71 26 0 6 -9 13 -20 13 -11 1 -24 3 -30
4 -5 1 -14 3 -20 4 -5 0 -10 10 -10 22 0 15 -5 19 -15 15 -8 -3 -15 -2 -15 2
0 4 -25 18 -55 32 -30 14 -55 28 -55 32 0 15 -95 98 -112 98 -20 0 -38 29 -38
59 0 13 -5 19 -14 15 -7 -3 -20 1 -28 9 -8 8 -24 18 -36 21 -12 4 -22 11 -22
15 0 12 -75 91 -87 91 -6 0 -18 16 -28 35 -9 21 -30 42 -49 52 -18 8 -40 27
-49 42 -25 40 -53 70 -68 73 -18 4 -41 27 -63 61 -9 15 -28 33 -40 39 -13 5
-31 28 -39 49 -11 27 -21 39 -35 39 -24 0 -62 44 -62 71 0 11 -4 19 -9 19 -20
0 -100 61 -106 81 -4 11 -24 31 -45 45 -24 16 -41 36 -45 54 -3 15 -17 33 -33
41 -42 22 -62 42 -62 62 0 10 -15 27 -35 38 -22 13 -35 29 -35 41 0 15 -5 19
-19 15 -14 -3 -23 5 -35 30 -9 19 -26 37 -36 40 -11 3 -20 9 -20 14 0 5 -7 9
-15 9 -9 0 -18 8 -22 18 -9 26 -35 53 -61 63 -13 5 -30 25 -38 45 -8 20 -24
38 -35 41 -10 3 -19 9 -19 14 0 5 -6 9 -13 9 -18 0 -44 29 -65 72 -10 18 -21
33 -27 33 -43 3 -75 39 -75 86 0 16 -4 19 -21 14 -15 -5 -29 2 -54 29 -18 20
-36 45 -40 55 -4 12 -12 18 -21 14 -7 -3 -14 -1 -14 3 0 5 -13 15 -29 22 -18
8 -34 27 -46 56 -15 35 -23 44 -43 44 -30 0 -61 33 -69 74 -4 20 -12 28 -27
28 -32 1 -87 51 -90 83 -4 36 -23 57 -35 38 -13 -20 -48 6 -72 52 -11 20 -24
37 -30 37 -16 0 -98 64 -96 75 2 15 -26 55 -40 55 -43 0 -95 63 -76 93 4 6 0
8 -10 4 -9 -3 -23 0 -31 8 -8 8 -21 15 -28 15 -16 0 -78 61 -78 76 0 5 -18 17
-40 27 -22 9 -59 31 -82 47 -49 36 -110 40 -172 11 -23 -10 -59 -27 -81 -37
-22 -10 -68 -35 -102 -56 -35 -21 -66 -38 -71 -38 -5 0 -18 -13 -30 -30 -13
-16 -29 -30 -37 -30 -8 0 -15 -6 -15 -13 0 -16 -42 -57 -58 -57 -15 0 -76 -61
-122 -122 -19 -25 -48 -54 -63 -65 -15 -10 -30 -29 -34 -43 -3 -14 -21 -39
-39 -56 -19 -17 -39 -45 -45 -63 -6 -17 -24 -45 -40 -61 -16 -15 -29 -38 -29
-50 0 -12 -8 -34 -19 -48 -22 -32 -38 -80 -47 -144 -4 -31 -11 -48 -20 -48
-19 0 -12 -165 9 -220 3 -8 8 -33 12 -55 4 -22 10 -60 15 -85 4 -25 17 -64 29
-87 11 -23 21 -47 21 -52 0 -6 8 -15 18 -20 10 -5 19 -23 20 -41 3 -40 20 -73
33 -65 5 4 9 1 9 -6 0 -7 15 -30 33 -53 19 -23 36 -49 40 -58 3 -10 13 -18 21
-18 9 0 25 -22 37 -50 12 -27 26 -50 32 -50 12 0 77 -68 77 -80 0 -4 11 -12
25 -18 14 -7 30 -23 35 -37 5 -14 14 -25 20 -25 5 0 10 -6 10 -13 0 -18 39
-53 68 -62 12 -3 22 -10 22 -15 0 -14 89 -105 103 -105 26 -2 45 -17 41 -33
-6 -22 46 -79 56 -62 8 13 46 -19 66 -55 6 -11 31 -30 56 -42 34 -17 47 -30
51 -51 4 -19 17 -34 41 -47 20 -11 36 -23 36 -27 0 -5 7 -8 15 -8 8 0 15 -5
15 -10 0 -16 53 -71 77 -81 12 -4 31 -26 42 -47 13 -25 29 -42 46 -46 14 -4
35 -22 48 -41 12 -19 32 -39 45 -44 13 -6 22 -19 22 -32 0 -16 5 -20 18 -17
23 6 42 -15 42 -45 0 -21 8 -27 45 -38 29 -9 47 -21 51 -34 11 -32 38 -64 55
-65 20 0 59 -42 59 -63 0 -9 5 -17 12 -17 6 0 26 -11 43 -25 18 -13 35 -22 38
-19 3 4 10 -11 16 -33 9 -33 17 -41 53 -53 34 -12 43 -21 50 -47 5 -18 13 -33
18 -33 16 0 89 -54 90 -66 0 -16 57 -77 67 -71 17 11 44 -21 45 -55 1 -32 4
-35 32 -35 16 0 32 -5 34 -11 2 -7 10 -12 17 -12 7 0 16 -10 19 -23 3 -12 22
-33 41 -47 61 -43 75 -57 75 -74 0 -25 24 -45 60 -52 23 -5 34 -15 45 -40 8
-19 19 -34 24 -34 6 0 11 -7 11 -16 0 -8 5 -12 11 -9 12 8 49 -23 49 -41 0 -7
13 -21 30 -31 16 -9 30 -23 30 -31 0 -8 6 -12 12 -10 16 6 35 -13 48 -47 6
-17 25 -33 50 -43 31 -14 41 -24 47 -52 6 -25 14 -35 28 -35 10 0 20 -6 23
-13 2 -6 12 -12 22 -12 10 0 33 -19 52 -42 31 -41 44 -53 50 -47 6 7 50 -37
58 -58 5 -12 24 -29 42 -38 61 -29 81 -50 81 -84 0 -21 5 -30 12 -27 7 2 25
-2 39 -10 15 -7 32 -13 38 -11 5 1 18 -14 29 -33 21 -39 62 -69 117 -86 7 -2
15 -12 19 -21 12 -32 48 -68 64 -65 9 2 24 -4 32 -13 9 -8 23 -15 32 -15 8 0
19 -10 24 -22 13 -33 41 -53 100 -73 28 -9 51 -21 51 -27 0 -6 9 -8 20 -5 11
3 20 1 20 -3 0 -5 10 -11 23 -15 33 -9 71 -28 82 -42 6 -6 29 -17 53 -23 23
-6 42 -16 42 -21 0 -7 10 -9 25 -5 14 4 25 3 25 -2 0 -4 15 -8 34 -9 18 -1 49
-8 67 -16 43 -19 104 -20 122 -2 8 7 32 17 53 21 74 13 204 91 277 165 21 22
50 47 65 57 46 29 74 54 138 119 34 35 67 63 73 63 6 0 11 4 11 9 0 5 9 7 20
4 15 -4 20 0 20 13 0 10 11 30 25 44 13 14 47 49 75 79 27 29 50 48 50 42 0
-19 29 0 32 22 2 12 7 21 12 19 4 -2 15 12 25 30 9 20 25 34 38 36 14 2 23 11
25 25 2 12 13 26 25 32 12 5 34 28 49 52 15 24 51 63 80 88 29 25 62 60 73 78
11 17 40 48 64 67 24 19 52 51 62 72 10 20 21 37 24 36 19 -2 31 4 31 14 0 7
13 26 30 43 84 86 153 163 165 185 8 14 43 52 79 84 36 33 66 64 66 71 0 17
47 58 58 51 13 -8 48 34 56 66 7 29 44 70 57 63 4 -3 33 29 64 71 35 46 70 81
89 89 39 16 61 41 70 78 4 17 16 31 31 37 14 5 25 14 25 19 0 5 17 27 38 48
20 22 75 80 122 130 47 49 94 101 106 114 11 13 37 37 57 53 20 16 39 37 43
48 3 10 14 18 25 18 12 0 19 7 19 19 0 10 7 24 15 31 8 7 15 9 15 4 0 -4 14 5
30 21 17 16 30 33 30 38 0 12 81 92 103 100 9 3 17 11 17 17 0 6 4 9 10 5 14
-9 50 27 50 50 0 12 23 39 59 70 33 28 60 54 60 58 1 10 88 94 130 125 17 13
31 30 31 38 0 20 54 74 74 74 9 0 16 5 16 11 0 13 32 56 83 112 21 22 45 54
53 69 8 15 21 28 29 28 17 0 55 47 55 68 0 9 18 43 40 77 37 57 39 64 29 94
-6 17 -20 36 -30 42 -10 5 -19 16 -19 23 0 7 -11 23 -24 35 -13 12 -34 42 -46
67 -13 24 -27 44 -32 44 -4 0 -8 10 -8 23 -1 24 -32 67 -49 67 -6 0 -11 13
-11 28 0 29 -29 72 -48 72 -11 0 -22 23 -22 49 0 9 -13 21 -30 28 -19 7 -31
20 -36 39 -7 30 -36 64 -54 64 -5 0 -10 11 -10 25 0 18 -11 33 -39 53 -31 21
-40 34 -43 62 -2 22 -8 35 -18 36 -30 2 -48 16 -53 42 -3 16 -18 34 -36 45
-18 11 -40 37 -51 63 -12 25 -25 42 -30 39 -12 -7 -70 35 -70 50 0 7 -13 25
-29 41 -16 16 -26 35 -23 43 4 11 0 13 -16 9 -18 -5 -22 -2 -22 17 0 17 -11
30 -42 47 -31 17 -46 33 -54 58 -9 26 -19 36 -43 43 -18 4 -35 16 -38 25 -9
25 -64 81 -95 98 -17 9 -28 23 -28 35 0 14 -5 19 -14 16 -8 -3 -16 2 -19 13
-3 10 -24 28 -48 40 -56 28 -79 49 -79 70 0 22 -25 43 -53 45 -11 1 -23 7 -25
13 -2 7 -10 12 -17 12 -8 0 -30 14 -48 30 -19 17 -37 30 -40 30 -10 0 -57 47
-57 57 0 10 -9 12 -106 18 -60 3 -74 1 -88 -14z"/>
</g>
</svg>
